<?xml version="1.0" standalone="no"?><!DOCTYPE svg PUBLIC "-//W3C//DTD SVG 1.1//EN" "http://www.w3.org/Graphics/SVG/1.1/DTD/svg11.dtd"><svg t="1603868304259" class="icon" viewBox="0 0 1024 1024" version="1.1" xmlns="http://www.w3.org/2000/svg" p-id="7245" xmlns:xlink="http://www.w3.org/1999/xlink" width="200" height="200"><defs><style type="text/css"></style></defs><path d="M984 210.85H212.35L188.84 93.3a40.1 40.1 0 0 0-39.22-32.16H20a20 20 0 0 0 0 40h129.62l21.94 109.71 25.91 129.55L241.38 560l8 40 23.51 117.55a40.11 40.11 0 0 0 39.22 32.16h551.95a20 20 0 0 0 0-40H312.11L290.17 600h590.76a40 40 0 0 0 38-27.35l103-309.12A40 40 0 0 0 984 210.85zM880.93 560H282.17l-61.82-309.15H984z" p-id="7246"></path><path d="M393.64 885.04m-77.82 0a77.82 77.82 0 1 0 155.64 0 77.82 77.82 0 1 0-155.64 0Z" p-id="7247"></path><path d="M784.34 885.04m-77.82 0a77.82 77.82 0 1 0 155.64 0 77.82 77.82 0 1 0-155.64 0Z" p-id="7248"></path></svg>